<?xml version="1.0" encoding="UTF-8" standalone="no"?>
<!-- Created with Inkscape (http://www.inkscape.org/) -->

<svg
   width="168.07681mm"
   height="55.239784mm"
   viewBox="0 0 168.07681 55.239784"
   version="1.1"
   id="svg1"
   inkscape:export-filename="moteur-logo.svg"
   inkscape:export-xdpi="96"
   inkscape:export-ydpi="96"
   xmlns:inkscape="http://www.inkscape.org/namespaces/inkscape"
   xmlns:sodipodi="http://sodipodi.sourceforge.net/DTD/sodipodi-0.dtd"
   xmlns="http://www.w3.org/2000/svg"
   xmlns:svg="http://www.w3.org/2000/svg">
  <sodipodi:namedview
     id="namedview1"
     pagecolor="#ffffff"
     bordercolor="#000000"
     borderopacity="0.25"
     inkscape:showpageshadow="2"
     inkscape:pageopacity="0.0"
     inkscape:pagecheckerboard="0"
     inkscape:deskcolor="#d1d1d1"
     inkscape:document-units="mm" />
  <defs
     id="defs1" />
  <g
     inkscape:label="Layer 1"
     inkscape:groupmode="layer"
     id="layer1"
     transform="translate(-23.995944,-6.7392943)">
    <path
       d="m 35.643149,38.129562 0.137104,10.899816 -0.205657,5.96405 q -0.137104,1.988017 -1.439598,3.359063 -1.233941,1.371046 -3.016301,1.919464 -3.016301,0.959732 -4.730109,0.959732 -1.645255,0 -1.645255,-1.50815 l 0.137105,-0.822628 q 0.822627,-2.330778 1.988016,-7.472201 l 0.342762,-1.713807 q 1.919464,-10.831264 1.919464,-25.63856 0,-5.621289 -1.233941,-8.089172 -0.822628,-0.891179 -0.822628,-1.988016 0,-3.016301 5.004318,-4.7301089 5.07287,-1.7823598 8.500485,-1.7823598 3.496168,0 4.250243,2.8791967 0.89118,3.084853 1.439598,6.512468 1.165389,7.197992 2.125121,7.197992 0.685523,0 1.096837,-0.822628 2.399331,-6.101154 3.084854,-8.294828 0.754075,-2.193674 0.959732,-2.742092 0.205657,-0.548418 1.371046,-1.713808 1.165389,-1.1653886 2.947749,-1.713807 2.673539,-1.0282845 6.032602,-1.0282845 5.552736,0 5.552736,2.3993305 0,0.754075 -0.61697,1.988017 -1.713808,2.536435 -2.399331,9.871531 -0.685523,7.335096 -0.685523,14.464535 0,14.327431 1.988017,15.698477 1.302494,1.028284 1.302494,2.467882 0,1.371046 -1.919465,2.742092 -1.919464,1.371046 -4.18169,2.056569 -2.262226,0.685523 -3.907481,0.685523 -1.576703,0 -2.467883,-0.685523 -0.89118,-0.685523 -1.028284,-1.371046 l -0.137105,-0.685523 q -0.342762,-1.165389 -0.342762,-4.318795 0,-5.07287 0.685523,-13.299146 l 0.205657,-2.467882 q 0.616971,-5.484184 0.616971,-8.569038 0,-3.153406 -0.548418,-3.153406 -1.371046,0 -5.004318,12.81928 -1.508151,5.209975 -2.536435,7.540753 l -0.411314,0.959733 q -0.959732,2.467882 -3.359063,2.467882 -0.754075,0 -1.233941,-0.411313 Q 42.978245,48.549512 42.84114,47.726884 41.607199,44.573478 38.65945,31.137228 L 37.699718,26.74988 q -0.342762,-1.096836 -0.89118,-1.096836 -1.165389,0 -1.165389,12.476518 z M 82.944256,24.35055 q 5.964051,0 9.048904,5.209975 3.153406,5.209975 3.153406,12.750727 0,9.940084 -5.689841,15.081506 -3.153406,2.810645 -6.992335,2.810645 -3.838928,0 -6.375363,-1.576703 -2.467883,-1.576703 -3.770377,-4.181691 -2.67354,-5.07287 -2.67354,-10.831263 0,-6.718125 3.084854,-12.613623 1.50815,-2.947749 4.18169,-4.798661 2.67354,-1.850912 6.032602,-1.850912 z m 3.976034,14.60164 q 0,-2.056569 -0.822628,-3.701824 -0.822627,-1.645256 -2.742092,-1.645256 -1.850912,0 -3.633272,2.67354 -1.713807,2.604987 -1.713807,6.375364 0,5.278527 3.496167,5.278527 1.919465,0 3.633272,-2.39933 1.78236,-2.399331 1.78236,-6.581021 z m 20.15435,-23.787648 -0.1371,3.29051 q 0,1.78236 0.75408,1.988017 0.82262,0.205657 1.5767,0.205657 0.75407,0 2.26222,-0.137105 1.4396,0 1.4396,1.850912 0,3.496168 -5.00432,5.415632 -0.68552,0.274209 -0.95973,1.233941 -0.41131,4.181691 -0.41131,9.802979 0,5.621289 0.41131,7.403649 0.34276,1.645255 2.46789,1.988016 0.47986,0 0.89117,0.479866 0.75408,0.89118 0.75408,1.78236 0,0.822628 -0.1371,1.645255 -0.13711,0.754076 -0.68553,2.193674 -0.47986,1.371046 -1.30249,2.604987 -0.75408,1.165389 -2.33078,2.056569 -1.5767,0.89118 -3.56472,0.89118 -3.427614,0 -4.935764,-4.044586 -0.548419,-1.576702 -0.548419,-3.770376 L 98.162846,33.60511 q 0,-3.359062 -0.411314,-5.484184 -0.342762,-2.125121 -2.604988,-3.976033 -0.959732,-0.685523 -0.959732,-1.919464 0,-1.233942 1.233942,-2.467883 3.770376,-2.330778 6.923786,-7.335096 0.95973,-1.302494 2.39933,-1.302494 2.33077,0 2.33077,4.044586 z m 14.53306,22.827916 q 0,0.411313 0.27421,0.685523 0.27421,0.342761 0.68552,0.342761 3.90748,-0.342761 5.20998,-3.701824 0.34276,-0.754075 0.47986,-1.78236 -0.0686,-2.39933 -1.91946,-2.39933 -2.12512,0 -3.29051,2.056569 -1.09684,2.056569 -1.4396,4.798661 z m 4.66156,-13.162042 q 4.593,0 7.12944,2.330778 2.60498,2.330778 2.60498,7.060887 0,4.730109 -3.77037,7.814962 -3.70183,3.084854 -9.39167,3.084854 -0.82262,0 -0.82262,0.822627 0,1.645256 1.16538,2.879197 1.23395,1.165389 3.29051,1.165389 2.12513,0 3.77038,-1.919464 1.71381,-1.919465 2.94775,-1.919465 1.30249,0 2.05657,1.096837 0.75407,1.096837 0.75407,3.153406 0,1.988016 -1.02828,4.044585 -0.95973,1.988017 -2.33078,3.016302 -1.37104,1.028284 -3.08485,1.645255 -2.53644,0.959732 -5.41563,0.959732 -2.81065,0 -5.27853,-1.371046 -2.46788,-1.371046 -3.83893,-3.701824 -2.67354,-4.661557 -2.67354,-10.282845 0,-5.689841 1.37105,-9.871531 1.37104,-4.18169 4.66155,-7.060887 3.35907,-2.947749 7.88352,-2.947749 z m 12.408,23.993305 0.20566,-11.105473 q 0,-1.988016 -0.34276,-3.427615 -0.34277,-1.50815 -1.09684,-2.330778 -0.68552,-0.89118 -0.68552,-1.850912 0,-2.125121 3.42761,-3.907481 3.42762,-1.850912 5.27853,-1.850912 1.85091,0 2.46788,0.754075 0.68552,0.754076 0.68552,2.742092 0,1.988017 -0.34276,6.306812 -0.34276,4.250242 -0.34276,5.141422 0,7.472201 3.22196,7.472201 2.33078,0 3.1534,-4.867213 0.34277,-1.78236 0.34277,-3.976034 0,-4.387347 -0.75408,-6.512468 -0.75408,-0.959732 -0.75408,-1.850912 0,-2.056569 3.08486,-3.427615 3.08485,-1.439599 5.41563,-1.439599 2.39933,0 2.39933,2.399331 0,2.330778 -0.47987,7.335096 -0.41131,5.004318 -0.41131,7.952067 0,2.879196 0.0685,4.113138 0.0686,1.165389 0.68553,3.564719 0.68552,2.330778 1.78236,3.016301 1.16538,0.548419 1.16538,1.508151 0,0.89118 -0.54841,1.645255 -2.53644,3.496168 -8.02062,3.496168 -3.08486,-0.205657 -3.49617,-2.330779 l -0.47987,-2.330778 q -0.0685,-0.479866 -0.41131,-0.479866 l -0.54842,0.274209 q -2.46788,4.661557 -7.54075,4.661557 -7.12944,-0.137105 -7.12944,-10.694159 z m 40.03449,4.455899 0.1371,1.713808 q 0,2.262226 -1.5767,3.359063 -2.67354,1.850912 -6.78668,1.850912 -2.60498,0 -2.60498,-2.262226 l 0.20565,-1.165389 q 1.64526,-8.089172 1.64526,-19.811615 0,-3.564719 -2.12512,-5.07287 -0.75408,-0.479866 -0.75408,-1.576703 0,-2.125121 3.35906,-4.113138 3.42762,-2.056569 5.48419,-2.056569 2.05657,0 2.33078,2.262226 0.27421,1.576703 0.27421,2.39933 0,0.754076 0.54841,0.754076 0.34277,0 0.47987,-0.274209 0.20566,-0.342762 0.34276,-0.616971 0.20566,-0.342762 0.82263,-1.096837 0.61697,-0.822628 1.30249,-1.371046 1.78236,-1.576703 3.97604,-1.576703 1.43959,0 2.87919,0.89118 2.67354,1.645255 2.67354,6.512469 0,3.084853 -1.23394,5.347079 -1.23394,2.262226 -3.97603,2.262226 -3.42762,0 -3.42762,-3.770377 l 0.0685,-1.028284 q 0,-1.165389 -0.95973,-1.165389 -3.63327,0 -3.63327,10.488502 0,2.742092 0.54842,9.117455 z"
       id="text1"
       style="font-size:68.5523px;line-height:0.9;font-family:Chicle;-inkscape-font-specification:Chicle;letter-spacing:0px;stroke:#000000;stroke-width:1.49478"
       aria-label="Moteur" />
  </g>
</svg>
